<svg width="154" height="178" viewBox="0 0 154 178" fill="none" xmlns="http://www.w3.org/2000/svg">
<path fill-rule="evenodd" clip-rule="evenodd" d="M0 0H3.02627H150.984H154L153.687 3L145.022 86H128.704L142.521 162.936L142.054 163.02C145.937 163.304 149 166.544 149 170.5C149 174.642 145.642 178 141.5 178C137.358 178 134 174.642 134 170.5C134 167.039 136.344 164.126 139.531 163.261L125.656 86H30.7155L17.1079 163.173C20.4774 163.909 23 166.91 23 170.5C23 174.642 19.6421 178 15.5 178C11.3579 178 8 174.642 8 170.5C8 166.848 10.6108 163.805 14.068 163.137L27.6692 86H11.4062L0.397892 3L0 0ZM5.54626 19L3.42416 3H14V19H5.54626ZM14 20H5.67889L7.53572 34H14V20ZM15 34V20H30V34H15ZM31 34V20H46V34H31ZM46 35H31V50H46V35ZM47 50V35H62V50H47ZM63 50V35H78V50H63ZM78 51H63V66H78V51ZM79 66V51H94V66H79ZM95 66V51H110V66H95ZM110 67H95V83H110V67ZM111 83V67H126V83H111ZM127 83V67H141V83H127ZM142 83H142.319L143.989 67H142V83ZM142 66H144V66.899L145.66 51H142V66ZM142 50H145.764L147.33 35H142V50ZM141 35V50H127V35H141ZM142 34H147.434L148.896 20H142V34ZM141 20V34H127V20H141ZM142 19H149V19.0025L150.671 3H142V19ZM141 3V19H127V3H141ZM141 51V66H127V51H141ZM126 66V51H111V66H126ZM126 50V35H111V50H126ZM126 34V20H111V34H126ZM126 19V3H111V19H126ZM110 20V34H95V20H110ZM110 3V19H95V3H110ZM110 35V50H95V35H110ZM79 67H94V83H79V67ZM94 50V35H79V50H94ZM94 34V20H79V34H94ZM94 19V3H79V19H94ZM78 67H63V83H78V67ZM78 3V19H63V3H78ZM78 20V34H63V20H78ZM47 51H62V66H47V51ZM47 67H62V83H47V67ZM62 34V20H47V34H62ZM62 19V3H47V19H62ZM46 51H31V66H46V51ZM46 67H31V83H46V67ZM46 3H31V19H46V3ZM15 35H30V50H15V35ZM15 51H30V66H15V51ZM15 67H30V83H15V67ZM30 19V3H15V19H30ZM14 35H7.66835L9.65781 50H14V35ZM14 51H9.79044L11.7799 66H14V51ZM14 67H11.9125L14 82.7389V67ZM21 170.5C21 173.538 18.5376 176 15.5 176C12.4624 176 10 173.538 10 170.5C10 167.462 12.4624 165 15.5 165C18.5376 165 21 167.462 21 170.5ZM141.5 176C144.538 176 147 173.538 147 170.5C147 167.462 144.538 165 141.5 165C138.462 165 136 167.462 136 170.5C136 173.538 138.462 176 141.5 176Z" fill="#7F00F8"/>
</svg>
